# xmcd
#
# Track frame offsets: 
#        183
#        12718
#        27695
#        40833
#        55713
#        68478
#        84463
#        99133
#        112960
#        128513
#        145235
#        158703
#        172775
#        192275
#
# Disc length: 2779 seconds
#
# Revision: 1
# Processed by: cddbd v1.5.2PL0 Copyright (c) Steve Scherf et al.
# Submitted via: ExactAudioCopyFreeDBPlugin 1.0
#
DISCID=a90ad90e
DTITLE=Truck Stop - Ihre großen Erfolge
DYEAR=1986
DGENRE=Country
TTITLE0=Der wilde, wilde Westen
TTITLE1=Easy Rider
TTITLE2=Die Frau mit dem Gurt
TTITLE3=Black Jack
TTITLE4=Ich und mein Diesel
TTITLE5=Ich möcht' so gern Dave Dudley hör'n
TTITLE6=Louisiana Ladies
TTITLE7=Asphaltfieber
TTITLE8=Jeden Tag in einer anderen Stadt
TTITLE9=Hey Kleiner
TTITLE10=Take It Easy, altes Haus
TTITLE11=Das gibt's doch nur in Dallas
TTITLE12=Nein danke, ich rauch' nicht mehr
TTITLE13=Old Texas Town, die Western-Stadt
EXTD=Truck Stop   Ihre grössten Erfolge
EXTT0=
EXTT1=
EXTT2=
EXTT3=
EXTT4=
EXTT5=
EXTT6=
EXTT7=
EXTT8=
EXTT9=
EXTT10=
EXTT11=
EXTT12=
EXTT13=
PLAYORDER=
